# xmcd
#
# Track frame offsets:
#	150
#	15743
#	34951
#	53920
#	70057
#	87450
#	106049
#	122852
#	139602
#	159723
#	186828
#	204873
#	222947
#	240214
#	263485
#	282054
#	298896
#	321222
#
# Disc length: 4525 seconds
#
# Revision: 1
# Processed by: cddbd v1.5.2PL0 Copyright (c) Steve Scherf et al.
# Submitted via: audiograbber 1.83.01
#
DISCID=0211ab12
DTITLE=Various Artist - R 'n' B Classics CD 1
DYEAR=2006
DGENRE=R&B
TTITLE0=Kelis - Trick Me
TTITLE1=R Kelly - Bump 'n' Grind
TTITLE2=Blu Cantrell - Hit 'em Up Style (Oops!)
TTITLE3=Jamelia - Superstar
TTITLE4=Aaliyah - Back And Forth
TTITLE5=Toni Braxton - You're Makin' Me High
TTITLE6=Brownstone - If You Love Me
TTITLE7=SWV - Right Here (Human Nature remix)
TTITLE8=TLC - Creep
TTITLE9=Soul II Soul and Caron Wheeler - Keep On Movin'
TTITLE10=Mantronix - Got To Have Your Love
TTITLE11=Eternal - Stay
TTITLE12=Louise - Let's Go Round Again
TTITLE13=Tony Rich Project - Nobody Knows
TTITLE14=Jade - Don't Walk Away
TTITLE15=Lynden David Hall - Sexy Cinderella
TTITLE16=Another Level - Freak Me
TTITLE17=Luther Vandross - Your Secret Love
EXTD=
EXTT0=
EXTT1=
EXTT2=
EXTT3=
EXTT4=
EXTT5=
EXTT6=
EXTT7=
EXTT8=
EXTT9=
EXTT10=
EXTT11=
EXTT12=
EXTT13=
EXTT14=
EXTT15=
EXTT16=
EXTT17=
PLAYORDER=
